<svg xmlns="http://www.w3.org/2000/svg" width="960" height="540" viewBox="0 0 960 540">
  <defs>
    <linearGradient id="g" x1="0%" y1="0%" x2="100%" y2="100%">
      <stop offset="0%" style="stop-color:#3b82f6"/>
      <stop offset="100%" style="stop-color:#8b5cf6"/>
    </linearGradient>
  </defs>
  <rect width="960" height="540" fill="#0b1120"/>
  <rect x="0" y="0" width="280" height="540" fill="#111827"/>
  <rect x="280" y="0" width="680" height="56" fill="#1e293b"/>
  <rect x="24" y="24" width="40" height="40" rx="10" fill="url(#g)"/>
  <text x="76" y="42" fill="#f1f5f9" font-family="system-ui,sans-serif" font-size="18" font-weight="700">Aura Enterprise</text>
  <text x="76" y="58" fill="#94a3b8" font-family="system-ui,sans-serif" font-size="11">Retrieval-Augmented AI</text>
  <rect x="24" y="88" width="120" height="24" rx="12" fill="#14532d" stroke="#22c55e"/>
  <circle cx="36" cy="100" r="4" fill="#22c55e"/>
  <text x="48" y="104" fill="#bbf7d0" font-family="system-ui,sans-serif" font-size="11">Connected</text>
  <rect x="24" y="130" width="232" height="80" rx="12" fill="#1e293b" stroke="#334155"/>
  <text x="40" y="152" fill="#94a3b8" font-family="system-ui,sans-serif" font-size="10" letter-spacing="1">KNOWLEDGE BASE</text>
  <text x="80" y="188" fill="#f1f5f9" font-family="system-ui,sans-serif" font-size="22" font-weight="700">9</text>
  <text x="72" y="202" fill="#94a3b8" font-family="system-ui,sans-serif" font-size="9">Documents</text>
  <text x="180" y="188" fill="#f1f5f9" font-family="system-ui,sans-serif" font-size="22" font-weight="700">142</text>
  <text x="168" y="202" fill="#94a3b8" font-family="system-ui,sans-serif" font-size="9">Chunks</text>
  <rect x="300" y="80" width="420" height="72" rx="12" fill="#1e293b" stroke="#334155"/>
  <text x="320" y="108" fill="#f1f5f9" font-family="system-ui,sans-serif" font-size="13">Scalable ML deployment uses CI/CD, monitoring, and</text>
  <text x="320" y="128" fill="#f1f5f9" font-family="system-ui,sans-serif" font-size="13">container orchestration for reliable production serving.</text>
  <text x="320" y="148" fill="#64748b" font-family="system-ui,sans-serif" font-size="10">gemini-2.0-flash · 842ms · 3 sources</text>
  <rect x="300" y="400" width="620" height="48" rx="12" fill="#1e293b" stroke="#334155"/>
  <text x="320" y="430" fill="#64748b" font-family="system-ui,sans-serif" font-size="13">Ask a question about your knowledge base&</text>
  <rect x="820" y="408" width="88" height="32" rx="8" fill="url(#g)"/>
  <text x="844" y="428" fill="#fff" font-family="system-ui,sans-serif" font-size="13" font-weight="600">Send</text>
  <text x="300" y="380" fill="#94a3b8" font-family="system-ui,sans-serif" font-size="11">Suggested: What is explainable AI (XAI)?</text>
</svg>
